<svg xmlns="http://www.w3.org/2000/svg" width="1600" height="900" viewBox="0 0 1600 900" role="img" aria-label="Retro skyline background">
  <defs>
    <linearGradient id="sky" x1="0" y1="0" x2="0" y2="1">
      <stop offset="0%" stop-color="#120f3a"/>
      <stop offset="45%" stop-color="#1a235e"/>
      <stop offset="100%" stop-color="#081023"/>
    </linearGradient>
    <linearGradient id="sunset" x1="0" y1="0" x2="1" y2="1">
      <stop offset="0%" stop-color="#ffcc72"/>
      <stop offset="50%" stop-color="#ff6898"/>
      <stop offset="100%" stop-color="#7a5bff"/>
    </linearGradient>
  </defs>
  <rect width="1600" height="900" fill="url(#sky)"/>
  <circle cx="1130" cy="230" r="168" fill="url(#sunset)" opacity="0.88"/>
  <g opacity="0.24" fill="#d8f8ff">
    <circle cx="240" cy="122" r="2"/>
    <circle cx="330" cy="190" r="2"/>
    <circle cx="470" cy="98" r="2"/>
    <circle cx="590" cy="170" r="2"/>
    <circle cx="730" cy="122" r="2"/>
    <circle cx="1360" cy="120" r="2"/>
    <circle cx="1460" cy="190" r="2"/>
  </g>
  <g fill="#202b69" opacity="0.9">
    <polygon points="0,660 140,500 280,660"/>
    <polygon points="220,660 390,430 560,660"/>
    <polygon points="480,660 650,460 820,660"/>
    <polygon points="760,660 940,410 1120,660"/>
    <polygon points="1040,660 1190,470 1340,660"/>
    <polygon points="1260,660 1430,450 1600,660"/>
  </g>
  <g fill="#111739">
    <rect x="0" y="580" width="110" height="160"/>
    <rect x="90" y="520" width="90" height="220"/>
    <rect x="170" y="610" width="120" height="130"/>
    <rect x="280" y="470" width="110" height="270"/>
    <rect x="400" y="540" width="70" height="200"/>
    <rect x="470" y="430" width="140" height="310"/>
    <rect x="640" y="500" width="120" height="240"/>
    <rect x="780" y="410" width="180" height="330"/>
    <rect x="980" y="520" width="130" height="220"/>
    <rect x="1130" y="460" width="110" height="280"/>
    <rect x="1250" y="530" width="120" height="210"/>
    <rect x="1370" y="440" width="170" height="300"/>
  </g>
  <g fill="#57f6ff" opacity="0.32">
    <rect x="104" y="548" width="8" height="12"/>
    <rect x="104" y="570" width="8" height="12"/>
    <rect x="304" y="514" width="8" height="12"/>
    <rect x="326" y="514" width="8" height="12"/>
    <rect x="326" y="538" width="8" height="12"/>
    <rect x="522" y="474" width="8" height="12"/>
    <rect x="544" y="474" width="8" height="12"/>
    <rect x="812" y="450" width="8" height="12"/>
    <rect x="812" y="476" width="8" height="12"/>
    <rect x="840" y="450" width="8" height="12"/>
    <rect x="1166" y="492" width="8" height="12"/>
    <rect x="1414" y="466" width="8" height="12"/>
  </g>
  <g opacity="0.68">
    <rect x="0" y="705" width="1600" height="4" fill="#57f6ff"/>
    <rect x="0" y="765" width="1600" height="3" fill="#57f6ff" opacity="0.55"/>
    <rect x="0" y="825" width="1600" height="2" fill="#57f6ff" opacity="0.4"/>
  </g>
</svg>
