<svg xmlns="http://www.w3.org/2000/svg" width="720" height="560" viewBox="0 0 720 560" role="img" aria-label="Arcade illustration">
  <defs>
    <linearGradient id="bg" x1="0" y1="0" x2="1" y2="1">
      <stop offset="0%" stop-color="#0f1438"/>
      <stop offset="100%" stop-color="#1d0f2f"/>
    </linearGradient>
  </defs>
  <rect width="720" height="560" fill="url(#bg)"/>
  <rect x="80" y="70" width="180" height="360" rx="18" fill="#111a3f" stroke="#62f8ff" stroke-width="8"/>
  <rect x="460" y="100" width="170" height="330" rx="18" fill="#12183a" stroke="#ff6ea8" stroke-width="8"/>
  <rect x="110" y="105" width="120" height="100" rx="10" fill="#1f3969"/>
  <rect x="486" y="130" width="118" height="88" rx="10" fill="#37235a"/>
  <rect x="110" y="230" width="120" height="76" rx="10" fill="#1e1a37"/>
  <rect x="486" y="240" width="118" height="74" rx="10" fill="#15142d"/>
  <circle cx="144" cy="266" r="22" fill="#ffd55e"/>
  <circle cx="542" cy="274" r="20" fill="#57f6ff"/>
  <circle cx="585" cy="265" r="12" fill="#ff6ea8"/>
  <circle cx="196" cy="262" r="10" fill="#57f6ff"/>
  <rect x="306" y="130" width="112" height="248" rx="14" fill="#101633" stroke="#97ffb7" stroke-width="6"/>
  <rect x="326" y="156" width="72" height="92" rx="10" fill="#243b71"/>
  <rect x="331" y="161" width="62" height="82" rx="8" fill="#171d3f"/>
  <path d="M332 347h60l16 42h-92z" fill="#ff6ea8"/>
  <rect x="320" y="378" width="84" height="72" rx="12" fill="#192350"/>
  <rect x="90" y="448" width="540" height="28" rx="14" fill="#0a1026"/>
  <rect x="118" y="457" width="118" height="8" rx="4" fill="#57f6ff"/>
  <rect x="260" y="457" width="140" height="8" rx="4" fill="#ffd55e"/>
  <rect x="426" y="457" width="168" height="8" rx="4" fill="#ff6ea8"/>
</svg>
