<svg xmlns="http://www.w3.org/2000/svg" width="720" height="560" viewBox="0 0 720 560" role="img" aria-label="Handheld gaming illustration">
  <defs>
    <linearGradient id="bg" x1="0" y1="0" x2="1" y2="1">
      <stop offset="0%" stop-color="#1a1141"/>
      <stop offset="100%" stop-color="#0a1028"/>
    </linearGradient>
  </defs>
  <rect width="720" height="560" fill="url(#bg)"/>
  <rect x="164" y="82" width="392" height="396" rx="34" fill="#dfe4ef"/>
  <rect x="204" y="126" width="312" height="182" rx="18" fill="#212e5f"/>
  <rect x="226" y="148" width="268" height="138" rx="12" fill="#171d3f"/>
  <circle cx="258" cy="218" r="18" fill="#ffd55e"/>
  <circle cx="306" cy="192" r="14" fill="#57f6ff"/>
  <circle cx="344" cy="234" r="11" fill="#ff6ea8"/>
  <rect x="214" y="364" width="78" height="78" rx="18" fill="#b9c1d3"/>
  <rect x="244" y="388" width="18" height="8" rx="4" fill="#19254c"/>
  <rect x="249" y="382" width="8" height="18" rx="4" fill="#19254c"/>
  <circle cx="462" cy="392" r="16" fill="#ff6ea8"/>
  <circle cx="498" cy="416" r="16" fill="#57f6ff"/>
  <circle cx="496" cy="372" r="16" fill="#ffd55e"/>
  <rect x="316" y="350" width="82" height="18" rx="9" fill="#8f97aa"/>
  <rect x="316" y="378" width="82" height="18" rx="9" fill="#8f97aa"/>
  <rect x="316" y="406" width="82" height="18" rx="9" fill="#8f97aa"/>
  <rect x="252" y="466" width="216" height="18" rx="9" fill="#aab3c6"/>
  <circle cx="618" cy="126" r="34" fill="#57f6ff" opacity="0.22"/>
  <circle cx="102" cy="426" r="42" fill="#ff6ea8" opacity="0.18"/>
</svg>
